<svg width="13" height="13" viewBox="0 0 13 13" fill="none" xmlns="http://www.w3.org/2000/svg">
<g clip-path="url(#clip0_276_117)">
<path d="M9.90477 2.67625C7.77223 0.543138 4.30123 0.543138 2.16869 2.67625C1.13568 3.70994 0.56665 5.08399 0.56665 6.54532C0.56665 8.00666 1.13568 9.3807 2.16869 10.414C3.23517 11.4808 4.63596 12.0139 6.03672 12.0139C7.43748 12.0139 8.83829 11.4808 9.90475 10.414C12.0373 8.28088 12.0373 4.80977 9.90477 2.67625ZM9.30563 9.81469C7.50317 11.6176 4.57027 11.6176 2.7678 9.81469C1.89497 8.94163 1.41406 7.78034 1.41406 6.54532C1.41406 5.3103 1.89497 4.14902 2.7678 3.27552C4.57027 1.47257 7.50317 1.473 9.30563 3.27552C11.1077 5.07847 11.1077 8.01217 9.30563 9.81469Z" fill="white"/>
<path d="M7.74044 7.68187L6.60381 6.54536L7.74044 5.40885C7.89702 5.25207 7.89702 4.99759 7.74085 4.84038C7.58387 4.68279 7.32972 4.6832 7.17274 4.83998L6.03532 5.9773L4.89789 4.83998C4.74091 4.6832 4.48676 4.68279 4.32978 4.84038C4.17321 4.99757 4.17321 5.25205 4.33019 5.40885L5.46683 6.54536L4.33019 7.68187C4.17321 7.83865 4.17321 8.09313 4.32978 8.25034C4.40808 8.32913 4.51126 8.36812 4.61405 8.36812C4.71684 8.36812 4.81961 8.32872 4.89791 8.25073L6.03534 7.1134L7.17276 8.25073C7.25106 8.32913 7.35383 8.36812 7.45662 8.36812C7.55942 8.36812 7.66259 8.32872 7.74089 8.25034C7.89743 8.09313 7.89742 7.83865 7.74044 7.68187Z" fill="white"/>
</g>
<defs>
<clipPath id="clip0_276_117">
<rect width="12.5448" height="12.5448" fill="white" transform="translate(0.0178223 0.0179443)"/>
</clipPath>
</defs>
</svg>
